<svg xmlns="http://www.w3.org/2000/svg" viewBox="0 0 32 32">
  <defs>
    <linearGradient id="g" x1="0%" y1="0%" x2="100%" y2="100%">
      <stop offset="0%" stop-color="#00d9ff"/>
      <stop offset="100%" stop-color="#8b5cf6"/>
    </linearGradient>
  </defs>
  <!-- Shield body -->
  <path d="M16 2 L28 7 L28 17 C28 23.5 22.5 28.5 16 30 C9.5 28.5 4 23.5 4 17 L4 7 Z"
        fill="url(#g)" opacity="0.15"/>
  <path d="M16 2 L28 7 L28 17 C28 23.5 22.5 28.5 16 30 C9.5 28.5 4 23.5 4 17 L4 7 Z"
        fill="none" stroke="url(#g)" stroke-width="2"/>
  <!-- Lock body -->
  <rect x="11" y="16" width="10" height="8" rx="2" fill="url(#g)"/>
  <!-- Lock shackle -->
  <path d="M12.5 16 L12.5 13 C12.5 10.5 19.5 10.5 19.5 13 L19.5 16"
        fill="none" stroke="url(#g)" stroke-width="2" stroke-linecap="round"/>
  <!-- Keyhole -->
  <circle cx="16" cy="19.5" r="1.5" fill="#020617"/>
  <rect x="15.3" y="20.5" width="1.4" height="2" rx="0.5" fill="#020617"/>
</svg>
